<?xml version="1.0" standalone="no"?>
<!DOCTYPE svg PUBLIC "-//W3C//DTD SVG 20010904//EN"
 "http://www.w3.org/TR/2001/REC-SVG-20010904/DTD/svg10.dtd">
<svg version="1.0" xmlns="http://www.w3.org/2000/svg"
 width="140.000000pt" height="140.000000pt" viewBox="0 0 140.000000 140.000000"
 preserveAspectRatio="xMidYMid meet">
<metadata>
Created by potrace 1.11, written by Peter Selinger 2001-2013
</metadata>
<g transform="translate(0.000000,140.000000) scale(0.100000,-0.100000)"
fill="#000000" stroke="none">
<path d="M431 1371 c-11 -16 -18 -31 -14 -35 3 -3 1 -6 -6 -6 -7 0 -10 -4 -6
-9 3 -5 1 -12 -4 -16 -6 -3 -20 -27 -33 -53 -13 -26 -27 -50 -33 -54 -5 -4 -6
-8 -2 -8 5 0 -1 -13 -13 -30 -12 -16 -18 -30 -13 -30 4 0 3 -4 -2 -8 -6 -4
-25 -36 -43 -71 l-32 -64 0 -493 0 -494 404 0 404 0 12 34 c6 19 16 36 21 38
6 2 11 10 12 18 2 8 7 21 11 29 5 8 24 43 43 79 32 61 34 70 31 151 l-3 86
-32 -1 c-18 0 -33 3 -33 8 0 5 -6 6 -12 2 -17 -11 -98 -12 -105 -2 -2 5 -9 5
-15 2 -15 -9 -68 -13 -68 -5 0 4 4 11 9 16 5 6 36 64 71 130 34 66 67 126 73
133 6 7 11 26 12 40 1 15 4 32 7 38 4 5 3 16 -1 22 -4 7 -6 34 -3 61 4 45 2
49 -21 53 -14 3 -32 1 -41 -4 -26 -14 -20 13 18 84 110 209 118 227 114 257
-3 17 -1 31 4 31 5 0 4 9 -2 20 -8 15 -8 20 2 20 9 0 9 3 -2 10 -12 8 -12 10
-1 10 10 0 11 3 2 13 -6 8 -8 17 -5 20 3 3 -150 6 -340 6 l-346 0 -19 -28z"/>
</g>
</svg>
